# This file uses centimeters as units for non-parametric coordinates.

mtllib block3.mtl
g default
v 0.000000 1.000000 -0.500000
v 0.000000 1.000000 0.500000
v -0.437500 1.000000 -0.500000
v -0.437500 1.000000 0.500000
v 0.437500 1.000000 -0.500000
v 0.437500 1.000000 0.500000
v 0.437500 1.835338 0.500000
v 0.000000 1.835338 0.500000
v -0.437500 1.835338 0.500000
v -0.437500 1.835338 -0.500000
v 0.000000 1.835338 -0.500000
v 0.437500 1.835338 -0.500000
v 0.437500 0.164662 0.500000
v 0.000000 0.164662 0.500000
v -0.437500 0.164662 0.500000
v -0.437500 0.164662 -0.500000
v 0.000000 0.164662 -0.500000
v 0.437500 0.164662 -0.500000
v -0.484376 0.045328 0.484377
v -0.484376 0.075158 0.500000
v -0.500000 0.075158 0.484377
v -0.437500 0.045328 0.484377
v -0.437500 0.075158 0.500000
v -0.484376 1.924842 0.500000
v -0.484376 1.954672 0.484377
v -0.500000 1.924842 0.484377
v -0.437500 1.954672 0.484377
v -0.437500 1.924842 0.500000
v -0.500000 1.924842 -0.484377
v -0.484376 1.954672 -0.484377
v -0.484376 1.924842 -0.500000
v -0.437500 1.954672 -0.484377
v -0.437500 1.924842 -0.500000
v -0.484376 0.075158 -0.500000
v -0.484376 0.045328 -0.484377
v -0.500000 0.075158 -0.484377
v -0.437500 0.045328 -0.484377
v -0.437500 0.075158 -0.500000
v -0.484376 0.164662 0.500000
v -0.500000 0.164662 0.484377
v 0.484376 0.045328 0.484377
v 0.500000 0.075158 0.484377
v 0.484376 0.075158 0.500000
v 0.484376 0.164662 0.500000
v 0.500000 0.164662 0.484377
v 0.500000 1.924842 0.484377
v 0.484376 1.954672 0.484377
v 0.484376 1.924842 0.500000
v 0.484376 1.954672 -0.484377
v 0.500000 1.924842 -0.484377
v 0.484376 1.924842 -0.500000
v -0.500000 1.835338 -0.484377
v -0.484376 1.835338 -0.500000
v 0.484376 1.835338 -0.500000
v 0.500000 1.835338 -0.484377
v 0.500000 0.075158 -0.484377
v 0.484376 0.045328 -0.484377
v 0.484376 0.075158 -0.500000
v 0.000000 1.954672 0.484377
v 0.000000 1.924842 0.500000
v 0.437500 1.954672 0.484377
v 0.437500 1.924842 0.500000
v 0.000000 0.045328 -0.484377
v 0.000000 0.075158 -0.500000
v 0.437500 0.045328 -0.484377
v 0.437500 0.075158 -0.500000
v -0.500000 1.000000 -0.484377
v -0.484376 1.000000 -0.500000
v 0.500000 1.000000 -0.484377
v 0.484376 1.000000 -0.500000
v -0.500000 1.000000 0.484377
v -0.484376 1.000000 0.500000
v 0.500000 1.000000 0.484377
v 0.484376 1.000000 0.500000
v 0.000000 1.924842 -0.500000
v 0.000000 1.954672 -0.484377
v 0.000000 0.075158 0.500000
v 0.000000 0.045328 0.484377
v 0.437500 1.954672 -0.484377
v 0.437500 1.924842 -0.500000
v 0.437500 0.045328 0.484377
v 0.437500 0.075158 0.500000
v 0.500000 1.835338 0.484377
v 0.484376 1.835338 0.500000
v -0.484376 1.835338 0.500000
v -0.500000 1.835338 0.484377
v -0.500000 0.164662 -0.484377
v -0.484376 0.164662 -0.500000
v 0.484376 0.164662 -0.500000
v 0.500000 0.164662 -0.484377
vt 0.779014 0.118041
vt 0.778774 0.121496
vt 0.679778 0.121715
vt 0.679535 0.118244
vt 0.781026 0.121278
vt 0.779030 0.130636
vt 0.679546 0.130904
vt 0.677546 0.121497
vt 0.781303 0.130582
vt 0.779584 0.216654
vt 0.679252 0.216945
vt 0.677262 0.130855
vt 0.781867 0.216644
vt 0.779583 0.302638
vt 0.680079 0.303064
vt 0.676965 0.216954
vt 0.781868 0.302681
vt 0.779400 0.311828
vt 0.680377 0.312209
vt 0.677803 0.303121
vt 0.781646 0.312042
vt 0.779656 0.315298
vt 0.680151 0.315667
vt 0.678133 0.312436
vt 0.883836 0.120888
vt 0.883509 0.117426
vt 0.983343 0.115534
vt 0.983438 0.119015
vt 0.881604 0.120684
vt 0.985731 0.118960
vt 0.983646 0.128309
vt 0.883793 0.130081
vt 0.881506 0.130050
vt 0.985943 0.128267
vt 0.984889 0.215708
vt 0.884205 0.216244
vt 0.881917 0.216255
vt 0.987191 0.215691
vt 0.984908 0.303048
vt 0.884422 0.302452
vt 0.882140 0.302502
vt 0.987210 0.303059
vt 0.984790 0.312391
vt 0.884585 0.311632
vt 0.882323 0.311850
vt 0.987092 0.312417
vt 0.884288 0.315103
vt 0.985901 0.315719
vt 0.781647 0.315562
vt 0.786522 0.315566
vt 0.786518 0.416315
vt 0.781643 0.416311
vt 0.832059 0.416311
vt 0.831992 0.315708
vt 0.877468 0.315424
vt 0.877603 0.416244
vt 0.882343 0.315415
vt 0.882479 0.416234
vt 0.780185 0.017176
vt 0.785053 0.017134
vt 0.785846 0.117723
vt 0.780978 0.117765
vt 0.831289 0.117235
vt 0.830510 0.016748
vt 0.875962 0.016442
vt 0.876738 0.117146
vt 0.880831 0.016407
vt 0.881607 0.117110
vt 0.581427 0.217221
vt 0.626813 0.217102
vt 0.627595 0.303929
vt 0.582129 0.304404
vt 0.581708 0.130110
vt 0.627123 0.130316
vt 0.672112 0.216972
vt 0.672974 0.303226
vt 0.627762 0.313226
vt 0.582253 0.313712
vt 0.577258 0.304452
vt 0.576556 0.217234
vt 0.581770 0.120803
vt 0.627228 0.121018
vt 0.672423 0.130758
vt 0.576836 0.130088
vt 0.673263 0.312532
vt 0.627825 0.316724
vt 0.582301 0.317212
vt 0.577379 0.313774
vt 0.627268 0.117520
vt 0.581796 0.117303
vt 0.672667 0.121444
vt 0.576899 0.120771
vt 0.673361 0.316030
vt 0.577427 0.317276
vt 0.672738 0.117943
vt 0.576924 0.117270
vt 0.678247 0.315917
vt 0.677626 0.118014
vt 0.831871 0.216473
vt 0.877064 0.216278
vt 0.877301 0.302588
vt 0.831979 0.302926
vt 0.831388 0.130004
vt 0.876666 0.129993
vt 0.877438 0.311914
vt 0.831989 0.312213
vt 0.786711 0.216624
vt 0.786707 0.302764
vt 0.786127 0.130488
vt 0.831316 0.120726
vt 0.876733 0.120658
vt 0.786551 0.312069
vt 0.785907 0.121213
vt 0.882372 0.315353
vt 0.881626 0.117181
vt 0.781609 0.315530
vt 0.780946 0.117798
vt 0.984729 0.315897
vt 0.984502 0.115686
vn 0.000000 0.000000 -1.000000
vn 0.000000 0.000000 -1.000000
vn 0.000000 0.000000 -1.000000
vn 0.000000 0.000000 -1.000000
vn 0.000000 0.000000 1.000000
vn 0.000000 0.000000 1.000000
vn 0.000000 0.000000 1.000000
vn 0.000000 0.000000 1.000000
vn 0.000000 0.000000 -1.000000
vn 0.000000 0.000000 -1.000000
vn 0.000000 0.000000 1.000000
vn 0.000000 0.000000 1.000000
vn 0.000000 0.000000 1.000000
vn 0.000000 0.000000 1.000000
vn 0.000000 0.000000 1.000000
vn 0.000000 0.000000 -1.000000
vn 0.000000 0.000000 -1.000000
vn 0.000000 0.000000 -1.000000
vn -0.427328 -0.903827 0.022069
vn -0.991570 -0.128878 0.013384
vn -0.991570 -0.128878 -0.013384
vn -0.427328 -0.903827 -0.022069
vn -0.213912 -0.112035 0.970407
vn 0.000000 -0.999541 0.030290
vn 0.000000 -0.129815 0.991538
vn -0.242513 0.000000 0.970148
vn -0.999874 0.000000 0.015869
vn 0.000000 -0.999541 0.030290
vn 0.000000 -0.129815 0.991538
vn -0.213912 0.112035 0.970407
vn -0.991570 0.128878 0.013384
vn -0.999874 0.000000 0.015869
vn -0.242513 0.000000 0.970148
vn -0.427328 0.903827 0.022069
vn 0.000000 0.129815 0.991538
vn 0.000000 0.999541 0.030290
vn -0.427328 0.903827 -0.022069
vn -0.991570 0.128878 -0.013384
vn 0.000000 0.129815 0.991538
vn 0.000000 0.999541 0.030290
vn -0.213912 0.112035 -0.970407
vn -0.242513 0.000000 -0.970148
vn -0.999874 0.000000 -0.015869
vn 0.000000 0.999541 -0.030290
vn 0.000000 0.129815 -0.991538
vn 0.000000 0.999541 -0.030290
vn 0.000000 0.129815 -0.991538
vn -0.213912 -0.112035 -0.970407
vn -0.999874 0.000000 -0.015869
vn -0.242513 0.000000 -0.970148
vn 0.000000 -0.129815 -0.991538
vn 0.000000 -0.999541 -0.030290
vn 0.000000 -0.129815 -0.991538
vn 0.000000 -0.999541 -0.030290
vn 0.427328 -0.903827 0.022069
vn 0.213912 -0.112035 0.970407
vn 0.000000 -0.129815 0.991538
vn 0.000000 -0.999541 0.030290
vn 0.991570 -0.128880 0.013384
vn 0.427328 -0.903827 -0.022069
vn 0.991570 -0.128880 -0.013384
vn 0.999874 0.000000 0.015870
vn 0.242513 0.000000 0.970148
vn 0.991570 0.128880 0.013384
vn 0.213912 0.112035 0.970407
vn 0.242513 0.000000 0.970148
vn 0.999874 0.000000 0.015870
vn 0.427328 0.903827 0.022069
vn 0.991570 0.128880 -0.013384
vn 0.427328 0.903827 -0.022069
vn 0.000000 0.999541 0.030290
vn 0.000000 0.129815 0.991538
vn 0.213912 0.112035 -0.970407
vn 0.000000 0.129815 -0.991538
vn 0.000000 0.999541 -0.030290
vn 0.999874 0.000000 -0.015870
vn 0.242513 0.000000 -0.970148
vn 0.213912 -0.112035 -0.970407
vn 0.242513 0.000000 -0.970148
vn 0.999874 0.000000 -0.015870
vn 0.000000 -0.999541 -0.030290
vn 0.000000 -0.129815 -0.991538
vn -0.999874 0.000000 0.015869
vn -0.242513 0.000000 0.970148
vn -0.242513 0.000000 -0.970148
vn -0.999874 0.000000 -0.015869
vn 0.999874 0.000000 -0.015870
vn 0.242513 0.000000 -0.970148
vn 0.242513 0.000000 0.970148
vn 0.999874 0.000000 0.015870
s 1
g pCube4
usemtl initialShadingGroup
f 5/69/1 1/70/2 11/71/3 12/72/4
f 2/99/5 6/100/6 7/101/7 8/102/8
f 1/70/2 3/75/9 10/76/10 11/71/3
f 4/107/11 2/99/5 8/102/8 9/108/12
f 2/99/5 14/103/13 13/104/14 6/100/6
f 15/109/15 14/103/13 2/99/5 4/107/11
f 17/74/16 16/83/17 3/75/9 1/70/2
f 18/73/18 17/74/16 1/70/2 5/69/1
f 19/1/19 21/2/20 36/3/21 35/4/22
f 20/5/23 19/117/19 22/61/24 23/113/25
f 21/2/20 20/5/23 39/9/26 40/6/27
f 23/113/25 22/61/24 78/63/28 77/110/29
f 24/21/30 26/18/31 86/14/32 85/17/33
f 25/116/34 24/21/30 28/112/35 27/50/36
f 26/18/31 25/22/34 30/23/37 29/19/38
f 27/50/36 28/112/35 60/106/39 59/54/40
f 29/19/38 31/24/41 53/20/42 52/15/43
f 31/24/41 30/97/37 32/93/44 33/85/45
f 33/85/45 32/93/44 76/86/46 75/77/47
f 34/8/48 36/3/21 87/7/49 88/12/50
f 35/98/22 34/8/48 38/91/51 37/95/52
f 37/95/52 38/91/51 64/82/53 63/89/54
f 41/115/55 43/29/56 82/111/57 81/66/58
f 42/25/59 41/26/55 57/27/60 56/28/61
f 43/29/56 42/25/59 45/32/62 44/33/63
f 46/44/64 48/45/65 84/41/66 83/40/67
f 47/47/68 46/44/64 50/43/69 49/118/70
f 48/45/65 47/114/68 61/55/71 62/105/72
f 49/94/70 51/88/73 80/78/74 79/87/75
f 51/46/73 50/43/69 55/39/76 54/42/77
f 56/28/61 58/30/78 89/34/79 90/31/80
f 58/92/78 57/96/60 65/90/81 66/81/82
f 59/54/40 60/106/39 62/105/72 61/55/71
f 63/89/54 64/82/53 66/81/82 65/90/81
f 71/10/83 72/13/84 85/17/33 86/14/32
f 68/16/85 67/11/86 52/15/43 53/20/42
f 67/11/86 68/16/85 88/12/50 87/7/49
f 69/35/87 70/38/88 54/42/77 55/39/76
f 70/38/88 69/35/87 90/31/80 89/34/79
f 74/37/89 73/36/90 83/40/67 84/41/66
f 72/13/84 71/10/83 40/6/27 39/9/26
f 73/36/90 74/37/89 44/33/63 45/32/62
f 75/77/47 76/86/46 79/87/75 80/78/74
f 77/110/29 78/63/28 81/66/58 82/111/57
f 20/5/23 23/113/25 15/109/15 39/9/26
f 25/49/34 27/50/36 32/51/44 30/52/37
f 88/12/50 16/83/17 38/91/51 34/8/48
f 35/59/22 37/60/52 22/61/24 19/62/19
f 42/25/59 56/28/61 90/31/80 45/32/62
f 36/3/21 21/2/20 40/6/27 87/7/49
f 76/53/46 59/54/40 61/55/71 79/56/75
f 66/81/82 64/82/53 17/74/16 18/73/18
f 78/63/28 63/64/54 65/65/81 81/66/58
f 13/104/14 14/103/13 77/110/29 82/111/57
f 15/109/15 4/107/11 72/13/84 39/9/26
f 40/6/27 71/10/83 67/11/86 87/7/49
f 88/12/50 68/16/85 3/75/9 16/83/17
f 90/31/80 69/35/87 73/36/90 45/32/62
f 76/53/46 32/51/44 27/50/36 59/54/40
f 64/82/53 38/91/51 16/83/17 17/74/16
f 78/63/28 22/61/24 37/60/52 63/64/54
f 14/103/13 15/109/15 23/113/25 77/110/29
f 61/55/71 47/57/68 49/58/70 79/56/75
f 18/73/18 5/69/1 70/80/88 89/84/79
f 66/81/82 18/73/18 89/84/79 58/92/78
f 81/66/58 65/65/81 57/67/60 41/68/55
f 13/104/14 82/111/57 43/29/56 44/33/63
f 44/33/63 74/37/89 6/100/6 13/104/14
f 62/105/72 7/101/7 84/41/66 48/45/65
f 62/105/72 60/106/39 8/102/8 7/101/7
f 60/106/39 28/112/35 9/108/12 8/102/8
f 85/17/33 9/108/12 28/112/35 24/21/30
f 52/15/43 86/14/32 26/18/31 29/19/38
f 31/24/41 33/85/45 10/76/10 53/20/42
f 10/76/10 33/85/45 75/77/47 11/71/3
f 11/71/3 75/77/47 80/78/74 12/72/4
f 54/79/77 12/72/4 80/78/74 51/88/73
f 83/40/67 55/39/76 50/43/69 46/44/64
f 74/37/89 84/41/66 7/101/7 6/100/6
f 4/107/11 9/108/12 85/17/33 72/13/84
f 71/10/83 86/14/32 52/15/43 67/11/86
f 68/16/85 53/20/42 10/76/10 3/75/9
f 5/69/1 12/72/4 54/79/77 70/80/88
f 69/35/87 55/39/76 83/40/67 73/36/90
f 19/1/19 20/5/23 21/2/20
f 24/21/30 25/22/34 26/18/31
f 29/19/38 30/23/37 31/24/41
f 34/8/48 35/4/22 36/3/21
f 41/26/55 42/25/59 43/29/56
f 46/44/64 47/47/68 48/45/65
f 49/48/70 50/43/69 51/46/73
f 56/28/61 57/119/60 58/30/78
