# This file uses centimeters as units for non-parametric coordinates.

mtllib block6.mtl
g default
v 0.000000 1.000000 -0.500000
v 0.000000 1.000000 0.500000
v -0.437500 1.000000 -0.500000
v -0.437500 1.000000 0.500000
v 0.437500 1.000000 -0.500000
v 0.437500 1.000000 0.500000
v 0.437500 1.437500 0.500000
v 0.000000 1.437500 0.500000
v -0.437500 1.437500 0.500000
v -0.437500 1.437500 -0.500000
v 0.000000 1.437500 -0.500000
v 0.437500 1.437500 -0.500000
v 0.437500 0.562500 0.500000
v 0.000000 0.562500 0.500000
v -0.437500 0.562500 0.500000
v -0.437500 0.562500 -0.500000
v 0.000000 0.562500 -0.500000
v 0.437500 0.562500 -0.500000
v -0.484376 0.500000 0.484377
v -0.484376 0.515623 0.500000
v -0.500000 0.515623 0.484377
v -0.437500 0.500000 0.484377
v -0.437500 0.515623 0.500000
v -0.484376 1.484377 0.500000
v -0.484376 1.500000 0.484377
v -0.500000 1.484377 0.484377
v -0.437500 1.500000 0.484377
v -0.437500 1.484377 0.500000
v -0.500000 1.484377 -0.484377
v -0.484376 1.500000 -0.484377
v -0.484376 1.484377 -0.500000
v -0.437500 1.500000 -0.484377
v -0.437500 1.484377 -0.500000
v -0.484376 0.515623 -0.500000
v -0.484376 0.500000 -0.484377
v -0.500000 0.515623 -0.484377
v -0.437500 0.500000 -0.484377
v -0.437500 0.515623 -0.500000
v -0.484376 0.562500 0.500000
v -0.500000 0.562500 0.484377
v 0.484376 0.500000 0.484377
v 0.500000 0.515623 0.484377
v 0.484376 0.515623 0.500000
v 0.484376 0.562500 0.500000
v 0.500000 0.562500 0.484377
v 0.500000 1.484377 0.484377
v 0.484376 1.500000 0.484377
v 0.484376 1.484377 0.500000
v 0.484376 1.500000 -0.484377
v 0.500000 1.484377 -0.484377
v 0.484376 1.484377 -0.500000
v -0.500000 1.437500 -0.484377
v -0.484376 1.437500 -0.500000
v 0.484376 1.437500 -0.500000
v 0.500000 1.437500 -0.484377
v 0.500000 0.515623 -0.484377
v 0.484376 0.500000 -0.484377
v 0.484376 0.515623 -0.500000
v 0.000000 1.500000 0.484377
v 0.000000 1.484377 0.500000
v 0.437500 1.500000 0.484377
v 0.437500 1.484377 0.500000
v 0.000000 0.500000 -0.484377
v 0.000000 0.515623 -0.500000
v 0.437500 0.500000 -0.484377
v 0.437500 0.515623 -0.500000
v -0.500000 1.000000 -0.484377
v -0.484376 1.000000 -0.500000
v 0.500000 1.000000 -0.484377
v 0.484376 1.000000 -0.500000
v -0.500000 1.000000 0.484377
v -0.484376 1.000000 0.500000
v 0.500000 1.000000 0.484377
v 0.484376 1.000000 0.500000
v 0.000000 1.484377 -0.500000
v 0.000000 1.500000 -0.484377
v 0.000000 0.515623 0.500000
v 0.000000 0.500000 0.484377
v 0.437500 1.500000 -0.484377
v 0.437500 1.484377 -0.500000
v 0.437500 0.500000 0.484377
v 0.437500 0.515623 0.500000
v 0.500000 1.437500 0.484377
v 0.484376 1.437500 0.500000
v -0.484376 1.437500 0.500000
v -0.500000 1.437500 0.484377
v -0.500000 0.562500 -0.484377
v -0.484376 0.562500 -0.500000
v 0.484376 0.562500 -0.500000
v 0.500000 0.562500 -0.484377
vt 0.663197 0.743503
vt 0.662521 0.861409
vt 0.656817 0.861772
vt 0.657442 0.743081
vt 0.665920 0.743236
vt 0.665220 0.861724
vt 0.663067 0.864020
vt 0.656981 0.864511
vt 0.602507 0.862344
vt 0.603285 0.741958
vt 0.663796 0.740944
vt 0.657639 0.740313
vt 0.602495 0.865089
vt 0.548305 0.861272
vt 0.549018 0.742472
vt 0.603297 0.739214
vt 0.539741 0.869601
vt 0.542544 0.860858
vt 0.543320 0.742825
vt 0.540702 0.734039
vt 0.541946 0.863417
vt 0.540624 0.742506
vt 0.539819 0.861129
vt 0.540650 0.739792
vt 0.298424 0.859155
vt 0.299099 0.741250
vt 0.304803 0.740887
vt 0.304179 0.859577
vt 0.296400 0.740935
vt 0.295701 0.859422
vt 0.298553 0.738639
vt 0.304640 0.738148
vt 0.359113 0.740315
vt 0.358336 0.860701
vt 0.297825 0.861714
vt 0.303982 0.862345
vt 0.359125 0.737571
vt 0.413314 0.741387
vt 0.412603 0.860186
vt 0.358324 0.863445
vt 0.413511 0.738619
vt 0.419075 0.741801
vt 0.418302 0.859833
vt 0.412766 0.862925
vt 0.419673 0.739242
vt 0.421801 0.741531
vt 0.420998 0.860152
vt 0.418848 0.862444
vt 0.427556 0.741569
vt 0.426742 0.860207
vt 0.421827 0.738814
vt 0.427579 0.738858
vt 0.480386 0.860670
vt 0.481234 0.741988
vt 0.420971 0.862865
vt 0.426718 0.862917
vt 0.481256 0.739280
vt 0.480365 0.863379
vt 0.534880 0.742451
vt 0.534063 0.861091
vt 0.534903 0.739741
vt 0.534040 0.863802
vt 0.423848 0.498438
vt 0.429597 0.498486
vt 0.428602 0.617309
vt 0.422853 0.617261
vt 0.423870 0.495728
vt 0.429620 0.495776
vt 0.482264 0.617757
vt 0.483259 0.498935
vt 0.422830 0.619971
vt 0.428580 0.620019
vt 0.483282 0.496225
vt 0.482241 0.620468
vt 0.536921 0.499385
vt 0.535926 0.618207
vt 0.536943 0.496674
vt 0.535903 0.620917
vt 0.542670 0.499433
vt 0.541675 0.618255
vt 0.542693 0.496722
vt 0.541653 0.620965
vt 0.533539 0.923225
vt 0.479876 0.922781
vt 0.480319 0.869127
vt 0.533991 0.869554
vt 0.533089 0.976889
vt 0.479427 0.976442
vt 0.426215 0.922331
vt 0.426669 0.868667
vt 0.539289 0.923273
vt 0.533041 0.982638
vt 0.479379 0.982191
vt 0.425765 0.975993
vt 0.538839 0.976937
vt 0.420465 0.922283
vt 0.420919 0.868619
vt 0.425717 0.981742
vt 0.538791 0.982686
vt 0.420016 0.975944
vt 0.419968 0.981694
vt 0.481745 0.679878
vt 0.535406 0.680327
vt 0.534953 0.733990
vt 0.481302 0.733532
vt 0.482193 0.626217
vt 0.535855 0.626666
vt 0.541155 0.680376
vt 0.428082 0.679433
vt 0.427629 0.733106
vt 0.428531 0.625769
vt 0.541605 0.626714
vt 0.421879 0.733058
vt 0.422332 0.679385
vt 0.422782 0.625721
vt 0.548109 0.864040
vt 0.548855 0.739733
vt 0.539793 0.863845
vt 0.542774 0.740214
vn 0.000000 0.000000 -1.000000
vn 0.000000 0.000000 -1.000000
vn 0.000000 0.000000 -1.000000
vn 0.000000 0.000000 -1.000000
vn 0.000000 0.000000 1.000000
vn 0.000000 0.000000 1.000000
vn 0.000000 0.000000 1.000000
vn 0.000000 0.000000 1.000000
vn 0.000000 0.000000 -1.000000
vn 0.000000 0.000000 -1.000000
vn 0.000000 0.000000 1.000000
vn 0.000000 0.000000 1.000000
vn 0.000000 0.000000 1.000000
vn 0.000000 0.000000 1.000000
vn 0.000000 0.000000 1.000000
vn 0.000000 0.000000 -1.000000
vn 0.000000 0.000000 -1.000000
vn 0.000000 0.000000 -1.000000
vn -0.240674 -0.970521 0.012871
vn -0.970521 -0.240674 0.012871
vn -0.970521 -0.240674 -0.012871
vn -0.240674 -0.970521 -0.012871
vn -0.207776 -0.207776 0.955855
vn 0.000000 -0.999874 0.015869
vn 0.000000 -0.242513 0.970148
vn -0.242513 0.000000 0.970148
vn -0.999874 0.000000 0.015869
vn 0.000000 -0.999874 0.015869
vn 0.000000 -0.242513 0.970148
vn -0.207776 0.207776 0.955855
vn -0.970521 0.240674 0.012871
vn -0.999874 0.000000 0.015869
vn -0.242513 0.000000 0.970148
vn -0.240674 0.970521 0.012871
vn 0.000000 0.242513 0.970148
vn 0.000000 0.999874 0.015869
vn -0.240674 0.970521 -0.012871
vn -0.970521 0.240674 -0.012871
vn 0.000000 0.242513 0.970148
vn 0.000000 0.999874 0.015869
vn -0.207776 0.207776 -0.955855
vn -0.242513 0.000000 -0.970148
vn -0.999874 0.000000 -0.015869
vn 0.000000 0.999874 -0.015869
vn 0.000000 0.242513 -0.970148
vn 0.000000 0.999874 -0.015869
vn 0.000000 0.242513 -0.970148
vn -0.207776 -0.207776 -0.955855
vn -0.999874 0.000000 -0.015869
vn -0.242513 0.000000 -0.970148
vn 0.000000 -0.242513 -0.970148
vn 0.000000 -0.999874 -0.015869
vn 0.000000 -0.242513 -0.970148
vn 0.000000 -0.999874 -0.015869
vn 0.240674 -0.970521 0.012870
vn 0.207777 -0.207776 0.955855
vn 0.000000 -0.242513 0.970148
vn 0.000000 -0.999874 0.015869
vn 0.970520 -0.240677 0.012871
vn 0.240674 -0.970521 -0.012870
vn 0.970520 -0.240677 -0.012871
vn 0.999874 0.000000 0.015870
vn 0.242513 0.000000 0.970148
vn 0.970520 0.240677 0.012871
vn 0.207777 0.207776 0.955855
vn 0.242513 0.000000 0.970148
vn 0.999874 0.000000 0.015870
vn 0.240674 0.970521 0.012870
vn 0.970520 0.240677 -0.012871
vn 0.240674 0.970521 -0.012870
vn 0.000000 0.999874 0.015869
vn 0.000000 0.242513 0.970148
vn 0.207777 0.207776 -0.955855
vn 0.000000 0.242513 -0.970148
vn 0.000000 0.999874 -0.015869
vn 0.999874 0.000000 -0.015870
vn 0.242513 0.000000 -0.970148
vn 0.207777 -0.207776 -0.955855
vn 0.242513 0.000000 -0.970148
vn 0.999874 0.000000 -0.015870
vn 0.000000 -0.999874 -0.015869
vn 0.000000 -0.242513 -0.970148
vn -0.999874 0.000000 0.015869
vn -0.242513 0.000000 0.970148
vn -0.242513 0.000000 -0.970148
vn -0.999874 0.000000 -0.015869
vn 0.999874 0.000000 -0.015870
vn 0.242513 0.000000 -0.970148
vn 0.242513 0.000000 0.970148
vn 0.999874 0.000000 0.015870
s 1
g pCube3
usemtl initialShadingGroup
f 5/83/1 1/84/2 11/85/3 12/86/4
f 2/102/5 6/103/6 7/104/7 8/105/8
f 1/84/2 3/89/9 10/90/10 11/85/3
f 4/109/11 2/102/5 8/105/8 9/110/12
f 2/102/5 14/106/13 13/107/14 6/103/6
f 15/111/15 14/106/13 2/102/5 4/109/11
f 17/88/16 16/94/17 3/89/9 1/84/2
f 18/87/18 17/88/16 1/84/2 5/83/1
f 19/29/19 21/26/20 36/25/21 35/30/22
f 20/71/23 19/66/19 22/65/24 23/72/25
f 21/26/20 20/31/23 39/32/26 40/27/27
f 23/72/25 22/65/24 78/69/28 77/74/29
f 24/45/30 26/42/31 86/38/32 85/41/33
f 25/46/34 24/51/30 28/52/35 27/49/36
f 26/42/31 25/46/34 30/47/37 29/43/38
f 27/49/36 28/52/35 60/57/39 59/54/40
f 29/43/38 31/48/41 53/44/42 52/39/43
f 31/55/41 30/47/37 32/50/44 33/56/45
f 33/56/45 32/50/44 76/53/46 75/58/47
f 34/35/48 36/25/21 87/28/49 88/36/50
f 35/63/22 34/67/48 38/68/51 37/64/52
f 37/64/52 38/68/51 64/73/53 63/70/54
f 41/80/55 43/82/56 82/78/57 81/76/58
f 42/1/59 41/5/55 57/6/60 56/2/61
f 43/11/56 42/1/59 45/4/62 44/12/63
f 46/19/64 48/119/65 84/117/66 83/15/67
f 47/22/68 46/19/64 50/18/69 49/23/70
f 48/24/65 47/22/68 61/59/71 62/61/72
f 49/23/70 51/118/73 80/62/74 79/60/75
f 51/21/73 50/18/69 55/14/76 54/116/77
f 56/2/61 58/7/78 89/8/79 90/3/80
f 58/81/78 57/79/60 65/75/81 66/77/82
f 59/54/40 60/57/39 62/61/72 61/59/71
f 63/70/54 64/73/53 66/77/82 65/75/81
f 71/33/83 72/37/84 85/41/33 86/38/32
f 68/40/85 67/34/86 52/39/43 53/44/42
f 67/34/86 68/40/85 88/36/50 87/28/49
f 69/9/87 70/13/88 54/116/77 55/14/76
f 70/13/88 69/9/87 90/3/80 89/8/79
f 74/16/89 73/10/90 83/15/67 84/117/66
f 72/37/84 71/33/83 40/27/27 39/32/26
f 73/10/90 74/16/89 44/12/63 45/4/62
f 75/58/47 76/53/46 79/60/75 80/62/74
f 77/74/29 78/69/28 81/76/58 82/78/57
f 20/71/23 23/72/25 15/111/15 39/115/26
f 25/46/34 27/49/36 32/50/44 30/47/37
f 88/100/50 16/94/17 38/98/51 34/101/48
f 35/63/22 37/64/52 22/65/24 19/66/19
f 42/1/59 56/2/61 90/3/80 45/4/62
f 36/25/21 21/26/20 40/27/27 87/28/49
f 76/53/46 59/54/40 61/59/71 79/60/75
f 66/92/82 64/93/53 17/88/16 18/87/18
f 78/69/28 63/70/54 65/75/81 81/76/58
f 13/107/14 14/106/13 77/74/29 82/78/57
f 15/111/15 4/109/11 72/114/84 39/115/26
f 40/27/27 71/33/83 67/34/86 87/28/49
f 88/100/50 68/96/85 3/89/9 16/94/17
f 90/3/80 69/9/87 73/10/90 45/4/62
f 76/53/46 32/50/44 27/49/36 59/54/40
f 64/93/53 38/98/51 16/94/17 17/88/16
f 78/69/28 22/65/24 37/64/52 63/70/54
f 14/106/13 15/111/15 23/72/25 77/74/29
f 61/59/71 47/22/68 49/23/70 79/60/75
f 18/87/18 5/83/1 70/91/88 89/95/79
f 66/92/82 18/87/18 89/95/79 58/99/78
f 81/76/58 65/75/81 57/79/60 41/80/55
f 13/107/14 82/78/57 43/82/56 44/112/63
f 44/112/63 74/108/89 6/103/6 13/107/14
f 62/61/72 7/104/7 84/20/66 48/24/65
f 62/61/72 60/57/39 8/105/8 7/104/7
f 60/57/39 28/52/35 9/110/12 8/105/8
f 85/113/33 9/110/12 28/52/35 24/51/30
f 52/39/43 86/38/32 26/42/31 29/43/38
f 31/55/41 33/56/45 10/90/10 53/97/42
f 10/90/10 33/56/45 75/58/47 11/85/3
f 11/85/3 75/58/47 80/62/74 12/86/4
f 54/17/77 12/86/4 80/62/74 51/118/73
f 83/15/67 55/14/76 50/18/69 46/19/64
f 74/108/89 84/20/66 7/104/7 6/103/6
f 4/109/11 9/110/12 85/113/33 72/114/84
f 71/33/83 86/38/32 52/39/43 67/34/86
f 68/96/85 53/97/42 10/90/10 3/89/9
f 5/83/1 12/86/4 54/17/77 70/91/88
f 69/9/87 55/14/76 83/15/67 73/10/90
f 19/29/19 20/31/23 21/26/20
f 24/45/30 25/46/34 26/42/31
f 29/43/38 30/47/37 31/48/41
f 34/35/48 35/30/22 36/25/21
f 41/5/55 42/1/59 43/11/56
f 46/19/64 47/22/68 48/119/65
f 49/23/70 50/18/69 51/21/73
f 56/2/61 57/6/60 58/7/78
