# This file uses centimeters as units for non-parametric coordinates.

mtllib block2.mtl
g default
v -0.407604 0.002114 0.560919
v -0.376577 0.156975 0.560919
v -0.288220 0.286468 0.560919
v -0.155984 0.372993 0.560919
v 0.000000 0.403376 0.560919
v 0.155983 0.372993 0.560919
v 0.288220 0.286468 0.560919
v 0.376577 0.156976 0.560919
v 0.407604 0.002114 0.560919
v -0.407604 0.002114 -0.254289
v -0.376577 0.156975 -0.254289
v -0.288220 0.286468 -0.254289
v -0.155984 0.372993 -0.254289
v 0.000000 0.403376 -0.254289
v 0.155983 0.372993 -0.254289
v 0.288220 0.286468 -0.254289
v 0.376577 0.156976 -0.254289
v 0.407604 0.002114 -0.254289
v 0.000000 0.002114 0.560919
v 0.000000 0.002114 -0.254289
v 0.155983 0.376577 0.153315
v 0.000000 0.407604 0.153315
v -0.155984 0.376577 0.153315
v -0.288220 0.288220 0.153315
v -0.376577 0.155983 0.153315
v -0.407604 0.002114 0.153315
v 0.000000 0.002114 0.153315
v 0.407604 0.002114 0.153315
v 0.376577 0.155983 0.153315
v 0.288220 0.288220 0.153315
v 0.288220 0.288220 0.548181
v 0.155983 0.376577 0.548181
v 0.000000 0.407604 0.548181
v -0.155984 0.376577 0.548181
v -0.288220 0.288220 0.548181
v -0.376577 0.155983 0.548181
v -0.407604 0.002114 0.548181
v 0.000000 0.002114 0.548181
v 0.407604 0.002114 0.548181
v 0.376577 0.155983 0.548181
v 0.288220 0.288220 -0.241552
v 0.155983 0.376577 -0.241552
v 0.000000 0.407604 -0.241552
v -0.155984 0.376577 -0.241552
v -0.288220 0.288220 -0.241552
v -0.376577 0.155983 -0.241552
v -0.407604 0.002114 -0.241552
v 0.000000 0.002114 -0.241552
v 0.407604 0.002114 -0.241552
v 0.376577 0.155983 -0.241552
vt 0.889384 0.670331
vt 0.889305 0.710224
vt 0.886087 0.709975
vt 0.886167 0.670323
vt 0.888986 0.749836
vt 0.885757 0.750131
vt 0.786425 0.670021
vt 0.786334 0.709640
vt 0.889141 0.789715
vt 0.885839 0.790229
vt 0.786242 0.749760
vt 0.686580 0.709517
vt 0.686680 0.669860
vt 0.786151 0.789903
vt 0.686726 0.749681
vt 0.683360 0.709753
vt 0.683463 0.669853
vt 0.686455 0.789778
vt 0.683499 0.749373
vt 0.683157 0.789249
vt 0.888886 0.950251
vt 0.888851 0.990157
vt 0.885633 0.990155
vt 0.885666 0.950491
vt 0.785812 0.950504
vt 0.785743 0.990158
vt 0.888708 0.910668
vt 0.885478 0.910364
vt 0.785889 0.910342
vt 0.685851 0.989807
vt 0.685953 0.950134
vt 0.889022 0.870735
vt 0.885721 0.870209
vt 0.785976 0.870221
vt 0.686298 0.909943
vt 0.682631 0.989798
vt 0.682733 0.949883
vt 0.686228 0.869769
vt 0.683066 0.910237
vt 0.682923 0.870283
vt 0.928515 0.662596
vt 0.889384 0.670331
vt 0.889639 0.567365
vt 0.961280 0.640363
vt 0.983222 0.607017
vt 0.990999 0.567635
vt 0.983425 0.528211
vt 0.961654 0.494749
vt 0.928998 0.472343
vt 0.889895 0.464403
vt 0.683463 0.669853
vt 0.644368 0.661933
vt 0.683692 0.566883
vt 0.611708 0.639545
vt 0.589923 0.606095
vt 0.582332 0.566676
vt 0.590091 0.527288
vt 0.612020 0.493929
vt 0.644781 0.471676
vt 0.683921 0.463920
vt 0.889175 0.790144
vt 0.888460 0.830284
vt 0.885091 0.830281
vt 0.889060 0.870302
vt 0.786062 0.829989
vt 0.687033 0.829857
vt 0.683663 0.829846
vt 0.683112 0.789678
vt 0.682895 0.869849
vt 0.886421 0.567356
vt 0.886677 0.464395
vt 0.786908 0.464147
vt 0.786666 0.567099
vt 0.686910 0.566890
vt 0.687139 0.463927
vn -0.070084 -0.170970 0.982781
vn -0.065642 0.028171 0.997446
vn -0.922972 0.384866 0.000127
vn -0.378275 -0.925693 -0.000093
vn -0.051584 0.050916 0.997370
vn -0.706727 0.707480 0.003155
vn -0.028537 0.067259 0.997327
vn -0.382200 0.924049 0.007469
vn -0.000000 0.073235 0.997315
vn -0.000000 0.999958 0.009220
vn 0.028537 0.067259 0.997327
vn 0.382200 0.924049 0.007469
vn 0.051584 0.050916 0.997370
vn 0.706726 0.707480 0.003155
vn 0.065642 0.028171 0.997446
vn 0.922972 0.384866 0.000127
vn 0.070084 -0.170970 0.982781
vn 0.378276 -0.925693 -0.000093
vn 0.000000 -0.163451 0.986552
vn -0.070084 -0.170970 -0.982780
vn -0.065642 0.028171 -0.997446
vn 0.000000 -0.163451 -0.986552
vn -0.051584 0.050916 -0.997370
vn -0.028537 0.067259 -0.997327
vn -0.000000 0.073235 -0.997315
vn 0.028537 0.067259 -0.997327
vn 0.051584 0.050916 -0.997370
vn 0.065642 0.028171 -0.997446
vn 0.070084 -0.170970 -0.982780
vn 0.000000 -1.000000 0.000000
vn -0.000000 1.000000 0.000000
vn 0.382683 0.923880 0.000000
vn 0.382200 0.924049 -0.007469
vn -0.000000 0.999958 -0.009220
vn -0.382683 0.923880 0.000000
vn -0.382200 0.924049 -0.007469
vn -0.707107 0.707106 0.000000
vn -0.706727 0.707480 -0.003155
vn -0.922878 0.385093 0.000000
vn -0.922972 0.384866 -0.000127
vn -0.378243 -0.925706 -0.000000
vn -0.378275 -0.925693 0.000093
vn 0.000000 -1.000000 -0.000000
vn 0.000000 -1.000000 -0.000000
vn 0.378243 -0.925706 -0.000000
vn 0.378276 -0.925693 0.000093
vn 0.922878 0.385093 0.000000
vn 0.922972 0.384867 -0.000127
vn 0.706726 0.707480 -0.003155
vn 0.707107 0.707107 0.000000
s 1
g pCylinder6
usemtl initialShadingGroup
f 1/1/1 2/2/2 36/3/3 37/4/4
f 2/2/2 3/5/5 35/6/6 36/3/3
f 3/5/5 4/9/7 34/10/8 35/6/6
f 4/61/7 5/62/9 33/63/10 34/10/8
f 5/62/9 6/64/11 32/33/12 33/63/10
f 6/32/11 7/27/13 31/28/14 32/33/12
f 7/27/13 8/21/15 40/24/16 31/28/14
f 8/21/15 9/22/17 39/23/18 40/24/16
f 2/41/2 1/42/1 19/43/19
f 3/44/5 2/41/2 19/43/19
f 4/45/7 3/44/5 19/43/19
f 5/46/9 4/45/7 19/43/19
f 6/47/11 5/46/9 19/43/19
f 7/48/13 6/47/11 19/43/19
f 8/49/15 7/48/13 19/43/19
f 9/50/17 8/49/15 19/43/19
f 10/51/20 11/52/21 20/53/22
f 11/52/21 12/54/23 20/53/22
f 12/54/23 13/55/24 20/53/22
f 13/55/24 14/56/25 20/53/22
f 14/56/25 15/57/26 20/53/22
f 15/57/26 16/58/27 20/53/22
f 16/58/27 17/59/28 20/53/22
f 17/59/28 18/60/29 20/53/22
f 9/50/17 19/43/19 38/70/30 39/71/18
f 19/43/19 1/42/1 37/4/4 38/70/30
f 22/65/31 21/34/32 42/38/33 43/66/34
f 23/14/35 22/65/31 43/66/34 44/18/36
f 24/11/37 23/14/35 44/18/36 45/15/38
f 25/8/39 24/11/37 45/15/38 46/12/40
f 26/7/41 25/8/39 46/12/40 47/13/42
f 27/73/43 26/7/41 47/13/42 48/74/44
f 28/72/45 27/73/43 48/74/44 49/75/46
f 29/25/47 28/26/45 49/30/46 50/31/48
f 41/35/49 30/29/50 29/25/47 50/31/48
f 21/34/32 30/29/50 41/35/49 42/38/33
f 21/34/32 32/33/12 31/28/14 30/29/50
f 22/65/31 33/63/10 32/33/12 21/34/32
f 23/14/35 34/10/8 33/63/10 22/65/31
f 24/11/37 35/6/6 34/10/8 23/14/35
f 25/8/39 36/3/3 35/6/6 24/11/37
f 26/7/41 37/4/4 36/3/3 25/8/39
f 27/73/43 38/70/30 37/4/4 26/7/41
f 28/72/45 39/71/18 38/70/30 27/73/43
f 29/25/47 40/24/16 39/23/18 28/26/45
f 30/29/50 31/28/14 40/24/16 29/25/47
f 42/38/33 41/35/49 16/39/27 15/40/26
f 43/66/34 42/38/33 15/69/26 14/67/25
f 44/18/36 43/66/34 14/67/25 13/68/24
f 45/15/38 44/18/36 13/20/24 12/19/23
f 46/12/40 45/15/38 12/19/23 11/16/21
f 47/13/42 46/12/40 11/16/21 10/17/20
f 48/74/44 47/13/42 10/51/20 20/53/22
f 49/75/46 48/74/44 20/53/22 18/60/29
f 50/31/48 49/30/46 18/36/29 17/37/28
f 41/35/49 50/31/48 17/37/28 16/39/27
