# This file uses centimeters as units for non-parametric coordinates.

mtllib block5.mtl
g default
v -0.661227 0.724667 -0.595991
v -0.688889 0.711325 -0.585915
v 0.661227 0.724667 -0.595991
v 0.688889 0.711325 -0.585915
v -0.000000 1.555918 -0.595991
v -0.000000 1.577350 -0.585915
v -0.661227 0.724667 0.595991
v -0.688889 0.711325 0.585915
v 0.661227 0.724667 0.595991
v 0.688889 0.711325 0.585915
v -0.000000 1.555918 0.595991
v -0.000000 1.577350 0.585915
vt 0.565678 0.337851
vt 0.567340 0.480926
vt 0.445774 0.482350
vt 0.444112 0.339276
vt 0.567446 0.340701
vt 0.569041 0.478035
vt 0.442411 0.342167
vt 0.444006 0.479500
vt 0.566350 0.337624
vt 0.654074 0.408408
vt 0.651534 0.408435
vt 0.568021 0.481125
vt 0.443431 0.339077
vt 0.359918 0.411766
vt 0.357378 0.411794
vt 0.445103 0.482577
vt 0.562983 0.108253
vt 0.564331 0.223051
vt 0.442765 0.224478
vt 0.441418 0.109679
vn -0.471626 0.375161 -0.798012
vn -0.471626 0.375161 -0.798012
vn -0.471626 0.375161 -0.798012
vn -0.471626 0.375161 -0.798012
vn 0.000000 -0.602644 -0.798010
vn 0.000000 -0.602644 -0.798010
vn 0.000000 -0.602644 -0.798010
vn 0.000000 -0.602644 -0.798010
vn 0.471627 0.375160 -0.798012
vn 0.471627 0.375160 -0.798012
vn 0.471627 0.375160 -0.798012
vn 0.471627 0.375160 -0.798012
vn 0.000000 -0.602644 0.798010
vn 0.000000 -0.602644 0.798010
vn 0.000000 -0.602644 0.798010
vn 0.000000 -0.602644 0.798010
vn -0.471627 0.375160 0.798011
vn -0.471627 0.375160 0.798011
vn -0.471627 0.375160 0.798011
vn -0.471627 0.375160 0.798012
vn 0.471626 0.375161 0.798012
vn 0.471626 0.375161 0.798012
vn 0.471626 0.375161 0.798012
vn 0.471626 0.375161 0.798012
vn 0.000000 -1.000000 -0.000000
vn 0.000000 -1.000000 -0.000000
vn 0.000000 -1.000000 -0.000000
vn 0.000000 -1.000000 -0.000000
vn 0.782599 0.622526 -0.000000
vn 0.782599 0.622526 -0.000000
vn 0.782599 0.622526 -0.000000
vn 0.782599 0.622526 -0.000000
vn -0.782599 0.622527 0.000000
vn -0.782599 0.622527 0.000000
vn -0.782599 0.622527 0.000000
vn -0.782599 0.622527 0.000000
vn -0.000000 -0.000000 -1.000000
vn -0.000000 -0.000000 -1.000000
vn -0.000000 -0.000000 -1.000000
vn 0.000000 0.000000 1.000000
vn 0.000000 0.000000 1.000000
vn 0.000000 0.000000 1.000000
s off
g pPrism1
usemtl initialShadingGroup
f 1/5/1 2/9/2 6/10/3 5/11/4
f 2/1/5 1/5/6 3/6/7 4/2/8
f 4/12/9 3/6/10 5/11/11 6/10/12
f 7/7/13 8/4/14 10/3/15 9/8/16
f 8/13/17 7/7/18 11/14/19 12/15/20
f 9/8/21 10/16/22 12/15/23 11/14/24
f 2/1/25 4/2/26 10/3/27 8/4/28
f 4/17/29 6/18/30 12/19/31 10/20/32
f 6/18/33 2/1/34 8/4/35 12/19/36
f 1/5/37 5/11/38 3/6/39
f 7/7/40 9/8/41 11/14/42
