# This file uses centimeters as units for non-parametric coordinates.

mtllib pencil.mtl
g default
v 0.038731 1.172152 -0.067083
v -0.038731 1.172152 -0.067083
v -0.077461 1.172152 0.000000
v -0.038731 1.172152 0.067083
v 0.038731 1.172152 0.067083
v 0.077461 1.172152 0.000000
v 0.038731 2.827847 -0.067083
v -0.038731 2.827847 -0.067083
v -0.077461 2.827847 0.000000
v -0.038731 2.827847 0.067083
v 0.038731 2.827847 0.067083
v 0.077461 2.827847 0.000000
v 0.000000 2.827847 0.000000
v 0.000000 0.884357 0.000000
v -0.038731 1.154165 0.067083
v 0.038731 1.154165 0.067083
v 0.077461 1.154165 0.000000
v 0.038731 1.154165 -0.067083
v -0.038731 1.154165 -0.067083
v -0.077461 1.154165 0.000000
vt 0.093909 0.218783
vt 0.093909 0.283583
vt 0.077797 0.283583
vt 0.110020 0.283583
vt 0.093909 0.287903
vt 0.077797 0.287903
vt 0.110020 0.287903
vt 0.093909 0.685552
vt 0.077797 0.685552
vt 0.110020 0.685552
vt 0.043082 0.218783
vt 0.043082 0.283583
vt 0.026971 0.283583
vt 0.059193 0.283583
vt 0.043082 0.287903
vt 0.026971 0.287903
vt 0.059193 0.287903
vt 0.043082 0.685552
vt 0.026971 0.685552
vt 0.059193 0.685552
vt 0.396806 0.906707
vt 0.396806 0.958862
vt 0.351639 0.932785
vt 0.351639 0.984939
vt 0.351639 0.880630
vt 0.306472 0.958862
vt 0.306472 0.906707
vt 0.128624 0.287903
vt 0.128624 0.685552
vt 0.128624 0.283583
vt 0.119322 0.218783
vt 0.068495 0.218783
vn 0.000000 0.000000 -1.000000
vn 0.000000 0.000000 -1.000000
vn 0.000000 0.000000 -1.000000
vn 0.000000 0.000000 -1.000000
vn -0.866025 0.000000 -0.500000
vn -0.866025 0.000000 -0.500000
vn -0.866025 0.000000 -0.500000
vn -0.866025 0.000000 -0.500000
vn -0.866025 0.000000 0.500000
vn -0.866025 0.000000 0.500000
vn -0.866025 0.000000 0.500000
vn -0.866025 0.000000 0.500000
vn 0.000000 0.000000 1.000000
vn 0.000000 0.000000 1.000000
vn 0.000000 0.000000 1.000000
vn 0.000000 0.000000 1.000000
vn 0.866025 0.000000 0.500000
vn 0.866025 0.000000 0.500000
vn 0.866025 0.000000 0.500000
vn 0.866025 0.000000 0.500000
vn 0.866025 0.000000 -0.500000
vn 0.866025 0.000000 -0.500000
vn 0.866025 0.000000 -0.500000
vn 0.866025 0.000000 -0.500000
vn 0.000000 1.000000 0.000001
vn 0.000000 1.000000 -0.000001
vn 0.000000 1.000000 0.000000
vn 0.000000 1.000000 0.000000
vn 0.000000 1.000000 0.000001
vn 0.000000 1.000000 -0.000000
vn 0.000000 1.000000 0.000001
vn 0.000000 -0.211986 -0.977273
vn 0.000000 -0.211986 -0.977273
vn -0.846343 -0.211986 -0.488636
vn -0.846343 -0.211986 -0.488636
vn -0.846343 -0.211986 0.488636
vn -0.846343 -0.211986 0.488636
vn 0.000000 -0.211986 0.977273
vn 0.000000 -0.211986 0.977273
vn 0.846343 -0.211986 0.488636
vn 0.846343 -0.211986 0.488636
vn 0.846343 -0.211986 -0.488636
vn 0.846343 -0.211986 -0.488636
vn 0.000000 -0.241287 0.970454
vn 0.840438 -0.241287 0.485227
vn 0.840438 -0.241287 -0.485227
vn 0.000000 -0.241287 -0.970454
vn -0.840438 -0.241287 -0.485227
vn -0.840438 -0.241287 0.485227
s 1
g pCylinder7
usemtl initialShadingGroup
f 1/7/1 2/28/2 8/29/3 7/10/4
s 2
f 2/16/5 3/15/6 9/18/7 8/19/8
s 3
f 3/15/9 4/17/10 10/20/11 9/18/12
s 4
f 4/17/13 5/6/14 11/9/15 10/20/16
s 5
f 5/6/17 6/5/18 12/8/19 11/9/20
s 6
f 6/5/21 1/7/22 7/10/23 12/8/24
s 7
f 7/21/25 8/22/26 13/23/27
f 8/22/26 9/24/28 13/23/27
f 9/24/28 10/26/29 13/23/27
f 10/26/29 11/27/30 13/23/27
f 11/27/30 12/25/31 13/23/27
f 12/25/31 7/21/25 13/23/27
s 1
f 2/28/2 1/7/1 18/4/32 19/30/33
s 2
f 3/15/6 2/16/5 19/13/34 20/12/35
s 3
f 4/17/10 3/15/9 20/12/36 15/14/37
s 4
f 5/6/14 4/17/13 15/14/38 16/3/39
s 5
f 6/5/18 5/6/17 16/3/40 17/2/41
s 6
f 1/7/22 6/5/21 17/2/42 18/4/43
s 4
f 14/32/44 16/3/39 15/14/38
s 5
f 14/1/45 17/2/41 16/3/40
s 6
f 14/1/46 18/4/43 17/2/42
s 1
f 14/31/47 19/30/33 18/4/32
s 2
f 14/11/48 20/12/35 19/13/34
s 3
f 14/11/49 15/14/37 20/12/36
