# This file uses centimeters as units for non-parametric coordinates.

mtllib book.mtl
g default
v 2.924427 1.051046 0.483047
v 2.900871 0.113619 0.483047
v -2.907196 1.197584 0.456926
v -2.930751 0.260156 0.456926
v -2.911392 1.197689 1.394642
v -2.934950 0.260262 1.394642
v 2.920229 1.051152 1.420763
v 2.896674 0.113725 1.420763
v 2.934971 1.050782 -1.872601
v -2.896651 1.197319 -1.898724
v 2.911416 0.113354 -1.872601
v -2.920208 0.259891 -1.898724
v -2.913059 1.164438 1.580051
v 2.918563 1.017900 1.606171
v -2.917763 1.000981 1.713001
v 2.913860 0.854445 1.739124
v -2.924811 0.729017 1.760937
v 2.906812 0.582479 1.787058
v -2.931431 0.457042 1.713001
v 2.900192 0.310505 1.739124
v -2.934942 0.293554 1.580051
v 2.896680 0.147017 1.606171
v 2.893803 0.001264 1.430779
v 2.898023 0.000266 0.483047
v -2.937820 0.147800 1.404659
v -2.933600 0.146803 0.456926
v 2.923010 1.163614 1.430779
v 2.927275 1.164400 0.483047
v -2.904348 1.310937 0.456926
v -2.908612 1.310152 1.404659
v 2.937820 1.164134 -1.872601
v -2.893803 1.310672 -1.898724
v -2.923056 0.146539 -1.898724
v 2.908567 0.000000 -1.872601
v -2.911001 1.255983 1.634056
v 2.920622 1.109446 1.660179
v -2.917064 1.046582 1.812826
v 2.914559 0.900043 1.838945
v -2.925311 0.729029 1.872604
v 2.906312 0.582492 1.898724
v -2.933022 0.411464 1.812826
v 2.898600 0.264927 1.838945
v -2.937485 0.202022 1.634056
v 2.894137 0.055485 1.660179
v 2.780925 0.937943 -1.540146
v 2.761699 0.172809 -1.540146
v -2.748834 1.076894 -1.564915
v -2.768060 0.311760 -1.564915
v -2.763121 1.077254 1.626652
v -2.782348 0.312120 1.626652
v 2.766639 0.938303 1.651419
v 2.747412 0.173167 1.651419
v -2.773206 0.694700 1.732212
v 2.756553 0.555747 1.756981
v 2.771312 0.555376 -1.540146
v -2.758447 0.694328 -1.564915
v -2.768281 0.885979 1.705759
v 2.761478 0.747027 1.730528
v 2.776119 0.746660 -1.540146
v -2.753640 0.885612 -1.564915
v -2.777894 0.503412 1.705759
v 2.751865 0.364460 1.730528
v 2.766505 0.364092 -1.540146
v -2.763254 0.503045 -1.564915
vt 0.491470 0.369474
vt 0.539575 0.369474
vt 0.539575 0.655810
vt 0.491470 0.655810
vt 0.624727 0.369474
vt 0.669427 0.369474
vt 0.669427 0.655810
vt 0.622961 0.655810
vt 0.790722 0.369474
vt 0.788902 0.655810
vt 0.373580 0.655810
vt 0.373580 0.369474
vt 0.611196 0.655810
vt 0.613004 0.369474
vt 0.597436 0.655810
vt 0.599221 0.369474
vt 0.581279 0.655810
vt 0.583023 0.369474
vt 0.564719 0.655810
vt 0.564719 0.369474
vt 0.551298 0.655810
vt 0.551298 0.369474
vt 0.986422 0.898130
vt 0.762824 0.898579
vt 0.762752 0.862636
vt 0.986350 0.862187
vt 0.986246 0.810413
vt 0.762648 0.810862
vt 0.762576 0.774919
vt 0.986174 0.774470
vt 0.762394 0.684626
vt 0.985992 0.684178
vt 0.986603 0.988422
vt 0.763005 0.988871
vt 0.986260 0.817633
vt 0.762662 0.818082
vt 0.986277 0.825711
vt 0.762679 0.826160
vt 0.986298 0.836300
vt 0.762700 0.836749
vt 0.986319 0.846888
vt 0.762721 0.847337
vt 0.986335 0.854966
vt 0.762737 0.855416
vt 0.491470 0.359422
vt 0.539575 0.359422
vt 0.539575 0.668641
vt 0.491470 0.668641
vt 0.623849 0.359422
vt 0.669427 0.359422
vt 0.669427 0.668641
vt 0.621966 0.668641
vt 0.790575 0.359422
vt 0.796425 0.369474
vt 0.794604 0.655810
vt 0.788629 0.668641
vt 0.373580 0.668641
vt 0.367877 0.655810
vt 0.367877 0.369474
vt 0.373580 0.359422
vt 0.610484 0.668641
vt 0.612626 0.359422
vt 0.597554 0.668641
vt 0.599583 0.359422
vt 0.581195 0.668641
vt 0.583107 0.359422
vt 0.564719 0.668641
vt 0.564719 0.359422
vt 0.551298 0.668641
vt 0.551298 0.359422
vt 0.759491 0.029194
vt 0.759546 0.036787
vt 0.540065 0.038385
vt 0.540009 0.030793
vt 0.542306 0.346415
vt 0.534713 0.346415
vt 0.533768 0.216473
vt 0.541383 0.219557
vt 0.541324 0.211342
vt 0.760805 0.209744
vt 0.760865 0.217959
vt 0.768434 0.214765
vt 0.769379 0.346415
vt 0.761787 0.346415
vt 0.759712 0.059563
vt 0.760634 0.186199
vt 0.541152 0.187797
vt 0.540230 0.061161
vt 0.541268 0.203677
vt 0.541212 0.196013
vt 0.760694 0.194415
vt 0.760750 0.202079
vt 0.776971 0.346415
vt 0.776019 0.213660
vt 0.783619 0.214654
vt 0.784563 0.346415
vt 0.540120 0.045977
vt 0.759601 0.044379
vt 0.759656 0.051971
vt 0.540175 0.053569
vt 0.526169 0.215479
vt 0.527121 0.346415
vt 0.519529 0.346415
vt 0.518584 0.216584
vt 0.791234 0.217738
vt 0.792156 0.346415
vt 0.511937 0.346415
vt 0.511015 0.219778
vn -0.025121 -0.999684 0.000270
vn -0.025302 -0.998586 0.046760
vn -0.025302 -0.998586 0.046760
vn -0.025121 -0.999684 0.000270
vn 0.024883 0.998596 0.046760
vn 0.025119 0.999684 0.000270
vn 0.025119 0.999685 0.000270
vn 0.024883 0.998596 0.046760
vn 0.025120 0.999684 -0.000000
vn 0.025120 0.999684 -0.000000
vn -0.025120 -0.999685 -0.000000
vn -0.025120 -0.999684 -0.000000
vn 0.023417 0.972913 0.229983
vn 0.023417 0.972913 0.229983
vn 0.012901 0.649015 0.760666
vn 0.012901 0.649015 0.760666
vn 0.006279 0.412251 0.911049
vn 0.006279 0.412251 0.911049
vn -0.004476 0.000113 0.999990
vn -0.004476 0.000113 0.999990
vn -0.014434 -0.412047 0.911048
vn -0.014434 -0.412047 0.911048
vn -0.019711 -0.648843 0.760667
vn -0.019711 -0.648843 0.760667
vn -0.025476 -0.972861 0.229985
vn -0.025476 -0.972861 0.229985
vn 0.025120 0.999685 -0.000000
vn 0.025120 0.999685 -0.000000
vn 0.025242 0.999243 -0.029620
vn 0.025242 0.999242 -0.029620
vn -0.024977 -0.999249 -0.029620
vn -0.024977 -0.999249 -0.029620
vn -0.025120 -0.999684 -0.000000
vn -0.025120 -0.999685 -0.000000
vn -0.025120 -0.999684 -0.000000
vn -0.025120 -0.999684 -0.000000
vn 0.025120 0.999685 0.000000
vn 0.025120 0.999685 0.000000
vn -0.023934 -0.983977 -0.176682
vn -0.023934 -0.983977 -0.176682
vn -0.012374 -0.630739 -0.775896
vn -0.005500 -0.383508 -0.923521
vn -0.005500 -0.383508 -0.923521
vn -0.012374 -0.630739 -0.775896
vn 0.004477 -0.000112 -0.999990
vn 0.004477 -0.000112 -0.999990
vn 0.013768 0.383300 -0.923521
vn 0.013768 0.383300 -0.923521
vn 0.019320 0.630562 -0.775898
vn 0.019320 0.630562 -0.775898
vn 0.025516 0.983938 -0.176678
vn 0.025516 0.983938 -0.176678
vn 0.999674 -0.025122 0.004478
vn 0.999674 -0.025121 0.004478
vn 0.999674 -0.025121 0.004478
vn 0.999674 -0.025122 0.004478
vn -0.999674 0.025119 -0.004478
vn -0.999675 0.025115 -0.004478
vn -0.999675 0.025115 -0.004478
vn -0.999674 0.025119 -0.004478
vn 0.999674 -0.025121 0.004478
vn 0.999674 -0.025119 0.004478
vn 0.999674 -0.025119 0.004478
vn 0.999674 -0.025121 0.004478
vn -0.999674 0.025121 -0.004478
vn -0.999674 0.025117 -0.004478
vn -0.999674 0.025117 -0.004478
vn -0.999674 0.025121 -0.004478
vn 0.999674 -0.025118 0.004478
vn 0.999675 -0.025118 0.004478
vn 0.004477 -0.000112 -0.999990
vn 0.004477 -0.000112 -0.999990
vn 0.004477 -0.000112 -0.999990
vn 0.004477 -0.000112 -0.999990
vn -0.999674 0.025121 -0.004478
vn -0.999674 0.025121 -0.004478
vn -0.999675 0.025114 -0.004477
vn -0.999675 0.025114 -0.004477
vn 0.004477 -0.000112 -0.999990
vn 0.004477 -0.000112 -0.999990
vn 0.004477 -0.000112 -0.999990
vn 0.004477 -0.000112 -0.999990
vn 0.999674 -0.025123 0.004478
vn 0.999674 -0.025123 0.004478
vn -0.999674 0.025116 -0.004480
vn -0.999674 0.025116 -0.004481
vn 0.999674 -0.025120 0.004478
vn 0.999674 -0.025120 0.004478
vn -0.999674 0.025117 -0.004479
vn -0.999674 0.025117 -0.004479
vn 0.999674 -0.025120 0.004479
vn 0.999674 -0.025120 0.004479
vn -0.999674 0.025117 -0.004477
vn -0.999674 0.025117 -0.004477
vn 0.999674 -0.025119 0.004480
vn 0.999674 -0.025119 0.004480
vn -0.999675 0.025118 -0.004474
vn -0.999675 0.025118 -0.004474
vn 0.999674 -0.025120 0.004480
vn 0.999674 -0.025120 0.004480
vn -0.999674 0.025119 -0.004474
vn -0.999675 0.025119 -0.004474
vn 0.999674 -0.025121 0.004479
vn 0.999674 -0.025121 0.004479
vn 0.004476 -0.000112 -0.999990
vn 0.004476 -0.000112 -0.999990
vn 0.004476 -0.000112 -0.999990
vn 0.004476 -0.000112 -0.999990
vn -0.999675 0.025118 -0.004478
vn -0.999674 0.025118 -0.004478
vn -0.999674 0.025118 -0.004478
vn -0.999675 0.025118 -0.004478
vn 0.005461 0.382054 0.924124
vn 0.002365 0.265938 0.963987
vn 0.002365 0.265938 0.963987
vn 0.005461 0.382054 0.924124
vn 0.999674 -0.025119 0.004478
vn 0.999674 -0.025121 0.004478
vn 0.999674 -0.025121 0.004478
vn 0.999674 -0.025119 0.004478
vn -0.025120 -0.999685 -0.000000
vn -0.025120 -0.999684 -0.000000
vn -0.025120 -0.999684 -0.000000
vn -0.025120 -0.999684 -0.000000
vn 0.025120 0.999684 -0.000000
vn 0.025120 0.999685 -0.000000
vn 0.025120 0.999684 -0.000000
vn 0.025120 0.999685 -0.000000
vn -0.004476 0.000113 0.999990
vn -0.010995 -0.265721 0.963987
vn -0.010995 -0.265720 0.963987
vn -0.004476 0.000112 0.999990
vn 0.999674 -0.025121 0.004478
vn 0.999674 -0.025121 0.004478
vn 0.999674 -0.025119 0.004478
vn 0.999674 -0.025119 0.004478
vn 0.004476 -0.000112 -0.999990
vn 0.004476 -0.000112 -0.999990
vn 0.004476 -0.000112 -0.999990
vn 0.004476 -0.000112 -0.999990
vn -0.999674 0.025121 -0.004478
vn -0.999674 0.025121 -0.004478
vn -0.999674 0.025122 -0.004478
vn -0.999674 0.025123 -0.004478
vn -0.013734 -0.381847 0.924124
vn -0.013734 -0.381847 0.924124
vn 0.999674 -0.025120 0.004478
vn 0.999674 -0.025120 0.004478
vn 0.004476 -0.000112 -0.999990
vn 0.004476 -0.000112 -0.999990
vn -0.999674 0.025121 -0.004478
vn -0.999674 0.025121 -0.004478
s 1
g polySurface192
usemtl boySG
f 24/1/1 23/2/2 25/3/3 26/4/4
s 2
f 27/5/5 28/6/6 29/7/7 30/8/8
f 29/7/7 28/6/6 31/9/9 32/10/10
s 1
f 24/1/1 26/4/4 33/11/11 34/12/12
s 2
f 27/5/5 30/8/8 35/13/13 36/14/14
s 3
f 36/14/15 35/13/16 37/15/17 38/16/18
f 38/16/18 37/15/17 39/17/19 40/18/20
f 40/18/20 39/17/19 41/19/21 42/20/22
f 42/20/22 41/19/21 43/21/23 44/22/24
s 1
f 44/22/25 43/21/26 25/3/3 23/2/2
s 4
f 2/23/27 4/24/28 6/25/29 8/26/30
s 5
f 7/27/31 5/28/32 3/29/33 1/30/34
f 3/29/33 10/31/35 9/32/36 1/30/34
s 4
f 2/23/27 11/33/37 12/34/38 4/24/28
s 5
f 7/27/31 14/35/39 13/36/40 5/28/32
s 6
f 14/35/41 16/37/42 15/38/43 13/36/44
f 16/37/42 18/39/45 17/40/46 15/38/43
f 18/39/45 20/41/47 19/42/48 17/40/46
f 20/41/47 22/43/49 21/44/50 19/42/48
s 4
f 22/43/51 8/26/30 6/25/29 21/44/52
s 7
f 2/45/53 8/46/54 23/2/55 24/1/56
s 8
f 6/47/57 4/48/58 26/4/59 25/3/60
s 7
f 7/49/61 1/50/62 28/6/63 27/5/64
s 8
f 3/51/65 5/52/66 30/8/67 29/7/68
s 7
f 1/50/62 9/53/69 31/9/70 28/6/63
s off
f 9/54/71 10/55/72 32/10/73 31/9/74
s 8
f 10/56/75 3/51/65 29/7/68 32/10/76
f 4/48/58 12/57/77 33/11/78 26/4/59
s off
f 12/58/79 11/59/80 34/12/81 33/11/82
s 7
f 11/60/83 2/45/53 24/1/56 34/12/84
s 8
f 5/52/66 13/61/85 35/13/86 30/8/67
s 7
f 14/62/87 7/49/61 27/5/64 36/14/88
s 8
f 13/61/85 15/63/89 37/15/90 35/13/86
s 7
f 16/64/91 14/62/87 36/14/88 38/16/92
s 8
f 15/63/89 17/65/93 39/17/94 37/15/90
s 7
f 18/66/95 16/64/91 38/16/92 40/18/96
s 8
f 17/65/93 19/67/97 41/19/98 39/17/94
s 7
f 20/68/99 18/66/95 40/18/96 42/20/100
s 8
f 19/67/97 21/69/101 43/21/102 41/19/98
s 7
f 22/70/103 20/68/99 42/20/100 44/22/104
s 8
f 21/69/101 6/47/57 25/3/60 43/21/102
s 7
f 8/46/54 22/70/103 44/22/104 23/2/55
s 11
f 45/71/105 59/72/106 60/73/107 47/74/108
s 12
f 47/75/109 60/76/110 57/77/111 49/78/112
s 13
f 49/78/113 57/79/114 58/80/115 51/81/116
s 14
f 51/81/117 58/82/118 59/83/119 45/84/120
s off
f 46/85/121 52/86/122 50/87/123 48/88/124
f 51/81/125 45/84/126 47/75/127 49/78/128
s 13
f 53/89/129 61/90/130 62/91/131 54/92/132
s 14
f 55/93/133 54/94/134 62/95/135 63/96/136
s 11
f 56/97/137 55/98/138 63/99/139 64/100/140
s 12
f 53/101/141 56/102/142 64/103/143 61/104/144
s 13
f 57/79/114 53/89/129 54/92/132 58/80/115
s 14
f 59/83/119 58/82/118 54/94/134 55/93/133
s 11
f 60/73/107 59/72/106 55/98/138 56/97/137
s 12
f 57/77/111 60/76/110 56/102/142 53/101/141
s 13
f 61/90/130 50/87/145 52/86/146 62/91/131
s 14
f 63/96/136 62/95/135 52/105/147 46/106/148
s 11
f 64/100/140 63/99/139 46/85/149 48/88/150
s 12
f 61/104/144 64/103/143 48/107/151 50/108/152
