# This file uses centimeters as units for non-parametric coordinates.

mtllib hondana.mtl
g default
v -6.837182 0.181521 -2.471311
v 6.837182 0.181521 -2.471311
v 6.155294 -0.019400 -2.538105
v -6.155294 -0.019400 -2.538105
v 6.122570 0.484459 -2.538105
v -6.122572 0.484459 -2.538105
v -6.997148 0.484459 -2.538105
v 6.997148 0.484459 -2.538105
v 6.399537 4.040349 -2.538105
v 6.523343 3.393882 -2.538105
v 5.599657 4.040349 -2.538105
v 5.707986 3.393882 -2.538105
v -6.399537 4.040349 -2.538105
v -6.523344 3.393882 -2.538105
v -5.599657 4.040349 -2.538105
v -5.707987 3.393882 -2.538105
v 6.073003 7.794930 -2.538105
v 6.073003 7.112340 -2.538105
v 5.313934 7.794930 -2.538105
v 5.313934 7.112340 -2.538105
v -6.073003 7.794930 -2.538105
v -6.073003 7.112340 -2.538105
v -5.313934 7.794930 -2.538105
v -5.313934 7.112340 -2.538105
v 6.855574 15.048986 -2.471311
v 7.012668 14.603440 -2.538105
v 6.136151 14.603440 -2.538105
v 6.167552 15.249906 -2.538105
v 6.523343 11.513386 -2.538105
v 6.399537 10.866920 -2.538105
v 5.707986 11.513386 -2.538105
v 5.599657 10.866920 -2.538105
v -6.855574 15.048986 -2.471311
v -7.012668 14.603440 -2.538105
v -6.523344 11.513386 -2.538105
v -6.399537 10.866920 -2.538105
v -5.707987 11.513386 -2.538105
v -5.599657 10.866920 -2.538105
v -6.136152 14.603440 -2.538105
v -6.167553 15.249906 -2.538105
v -6.837182 0.181521 2.471310
v -6.155294 -0.019400 2.538105
v -6.122572 0.484459 2.538105
v -6.997148 0.484459 2.538105
v 6.997148 0.484459 2.538105
v 6.122570 0.484459 2.538105
v 6.155294 -0.019400 2.538105
v 6.837182 0.181521 2.471310
v 6.399537 4.040349 2.538105
v 6.523343 3.393882 2.538105
v 5.599657 4.040349 2.538105
v 5.707986 3.393882 2.538105
v -5.599657 4.040349 2.538105
v -5.707987 3.393882 2.538105
v -6.399537 4.040349 2.538105
v -6.523344 3.393882 2.538105
v 6.073003 7.794930 2.538105
v 6.073003 7.112340 2.538105
v 5.313934 7.794930 2.538105
v 5.313934 7.112340 2.538105
v -5.313934 7.794930 2.538105
v -5.313934 7.112340 2.538105
v -6.073003 7.794930 2.538105
v -6.073003 7.112340 2.538105
v 6.855574 15.048986 2.471310
v 7.012668 14.603440 2.538105
v 6.167552 15.249906 2.538105
v 6.136151 14.603440 2.538105
v -6.167553 15.249906 2.538105
v -6.136152 14.603440 2.538105
v 6.523343 11.513386 2.538105
v 6.399537 10.866920 2.538105
v 5.707986 11.513386 2.538105
v 5.599657 10.866920 2.538105
v -5.707987 11.513386 2.538105
v -5.599657 10.866920 2.538105
v -6.855574 15.048986 2.471310
v -7.012668 14.603440 2.538105
v -6.523344 11.513386 2.538105
v -6.399537 10.866920 2.538105
v -5.707987 3.393882 -1.801168
v -6.122572 0.484459 -1.801168
v 6.122570 0.484459 -1.801168
v 5.707986 3.393882 -1.801168
v -5.599657 4.040348 -1.801168
v -5.313934 7.112340 -1.801168
v 5.599657 4.040349 -1.801168
v 5.313934 7.112340 -1.801168
v -5.707987 11.513386 -1.801168
v -6.136152 14.603440 -1.801168
v 5.707986 11.513386 -1.801168
v 6.136151 14.603440 -1.801168
v -5.313934 7.794930 -1.801168
v -5.599657 10.866920 -1.801168
v 5.313934 7.794930 -1.801168
v 5.599657 10.866920 -1.801168
vt 0.958715 0.649846
vt 0.963355 0.665537
vt 0.951758 0.666301
vt 0.951739 0.646170
vt 0.952043 0.968293
vt 0.952024 0.948162
vt 0.963622 0.948904
vt 0.959013 0.964604
vt 0.885063 0.957449
vt 0.870180 0.954614
vt 0.870163 0.936202
vt 0.885045 0.938682
vt 0.869902 0.660003
vt 0.884780 0.657139
vt 0.884797 0.675908
vt 0.869919 0.678415
vt 0.748727 0.135887
vt 0.748727 0.091287
vt 0.917056 0.091287
vt 0.917056 0.135887
vt 0.799461 0.947164
vt 0.783749 0.947179
vt 0.783733 0.929707
vt 0.799445 0.929693
vt 0.783486 0.667601
vt 0.799198 0.667586
vt 0.799214 0.685059
vt 0.783502 0.685073
vt 0.917056 0.246852
vt 0.980744 0.314837
vt 0.748727 0.256944
vt 0.685436 0.192657
vt 0.627051 0.968956
vt 0.616792 0.965351
vt 0.612152 0.949517
vt 0.748727 0.192657
vt 0.627032 0.948781
vt 0.611884 0.665587
vt 0.626765 0.666296
vt 0.713045 0.954762
vt 0.698168 0.957626
vt 0.698150 0.938859
vt 0.713028 0.936351
vt 0.616494 0.649745
vt 0.626746 0.646120
vt 0.697884 0.657316
vt 0.712767 0.660152
vt 0.712784 0.678563
vt 0.748728 0.145835
vt 0.917055 0.145835
vt 0.917056 0.192657
vt 0.917055 0.429865
vt 0.980745 0.494468
vt 0.748727 0.439433
vt 0.685436 0.366041
vt 0.748727 0.548796
vt 0.242117 0.661276
vt 0.247842 0.660411
vt 0.248076 0.673836
vt 0.239332 0.672904
vt 0.239805 0.893924
vt 0.233961 0.893222
vt 0.231989 0.881038
vt 0.240832 0.880773
vt 0.291370 0.892596
vt 0.292853 0.878466
vt 0.304279 0.877440
vt 0.302983 0.891901
vt 0.298213 0.678906
vt 0.309443 0.680387
vt 0.308747 0.665875
vt 0.297415 0.664777
vt 0.358162 0.890108
vt 0.358732 0.875867
vt 0.370676 0.876125
vt 0.370481 0.890404
vt 0.362511 0.684088
vt 0.374341 0.684258
vt 0.374765 0.669944
vt 0.362589 0.669723
vt 0.490198 0.901097
vt 0.489619 0.887508
vt 0.500843 0.888122
vt 0.498614 0.900455
vt 0.494055 0.678248
vt 0.505335 0.677867
vt 0.424960 0.894882
vt 0.424405 0.880338
vt 0.435738 0.881896
vt 0.436477 0.896162
vt 0.428203 0.682171
vt 0.439488 0.681046
vt 0.503071 0.665723
vt 0.495097 0.664673
vt 0.440868 0.666662
vt 0.429349 0.667517
vt 0.148906 0.662134
vt 0.152767 0.649724
vt 0.243036 0.577739
vt 0.229669 0.978163
vt 0.144986 0.885030
vt 0.235685 0.980079
vt 0.300244 0.981350
vt 0.288438 0.981262
vt 0.297066 0.575046
vt 0.308886 0.575452
vt 0.366831 0.982209
vt 0.354814 0.981819
vt 0.363971 0.577526
vt 0.375993 0.577780
vt 0.588982 0.907828
vt 0.490613 0.986259
vt 0.592118 0.895181
vt 0.591702 0.671069
vt 0.433524 0.986120
vt 0.421732 0.985394
vt 0.498349 0.577907
vt 0.506725 0.579912
vt 0.430504 0.577581
vt 0.442310 0.577485
vt 0.498952 0.984651
vt 0.588572 0.658571
vt 0.147655 0.897520
vt 0.237096 0.579621
vt 0.697901 0.676084
vt 0.685436 0.091287
vt 0.917056 0.021463
vt 0.748727 0.494468
vt 0.748727 0.246896
vt 0.979759 0.192657
vt 0.685436 0.494468
vt 0.748727 0.612670
vt 0.917056 0.439381
vt 0.980744 0.548796
vt 0.917055 0.494468
vt 0.917056 0.548796
vt 0.748727 0.366041
vt 0.748727 0.314837
vt 0.917056 0.314837
vt 0.917056 0.366041
vt 0.685436 0.136832
vt 0.748727 0.021463
vt 0.979759 0.091287
vt 0.979759 0.136689
vt 0.685436 0.146464
vt 0.979759 0.146200
vt 0.685436 0.548796
vt 0.917056 0.612670
vt 0.980745 0.366041
vt 0.748727 0.429916
vt 0.917056 0.256900
vt 0.685436 0.314837
vn -0.054407 -0.090905 0.994372
vn -0.002335 -0.003901 0.999990
vn -0.001713 -0.002863 0.999994
vn -0.004846 -0.008096 0.999956
vn 0.004846 -0.008096 0.999956
vn 0.001713 -0.002863 0.999994
vn 0.002335 -0.003901 0.999990
vn 0.054407 -0.090905 0.994372
vn 0.000000 0.000000 1.000000
vn 0.000000 0.000000 1.000000
vn 0.000000 0.000000 1.000000
vn 0.000000 0.000000 1.000000
vn 0.000000 0.000000 1.000000
vn 0.000000 0.000000 1.000000
vn 0.000000 0.000000 1.000000
vn 0.000000 0.000000 1.000000
vn 0.000000 0.000000 1.000000
vn 0.000000 0.000000 1.000000
vn 0.000000 0.000000 1.000000
vn 0.000000 0.000000 1.000000
vn 0.000000 0.000000 1.000000
vn 0.000000 0.000000 1.000000
vn 0.000000 0.000000 1.000000
vn 0.000000 0.000000 1.000000
vn 0.000000 0.000000 1.000000
vn 0.000000 0.000000 1.000000
vn 0.000000 0.000000 1.000000
vn 0.000000 0.000000 1.000000
vn 0.000000 0.000000 1.000000
vn 0.000000 0.000000 1.000000
vn 0.000000 0.000000 1.000000
vn 0.000000 0.000000 1.000000
vn 0.006327 0.008271 0.999946
vn 0.051125 0.066834 0.996454
vn 0.002277 0.002977 0.999993
vn 0.001827 0.002389 0.999996
vn -0.002277 0.002977 0.999993
vn -0.001827 0.002389 0.999996
vn 0.000000 0.000000 1.000000
vn 0.000000 0.000000 1.000000
vn 0.000000 0.000000 1.000000
vn 0.000000 0.000000 1.000000
vn 0.000000 0.000000 1.000000
vn 0.000000 0.000000 1.000000
vn -0.051125 0.066834 0.996453
vn -0.006327 0.008271 0.999946
vn 0.000000 0.000000 1.000000
vn 0.000000 0.000000 1.000000
vn 0.000000 0.000000 1.000000
vn 0.000000 0.000000 1.000000
vn 0.000000 0.000000 1.000000
vn 0.000000 0.000000 1.000000
vn 0.000000 0.000000 1.000000
vn 0.000000 0.000000 1.000000
vn 0.000000 0.000000 1.000000
vn 0.000000 0.000000 1.000000
vn -0.054407 -0.090903 -0.994372
vn -0.004846 -0.008096 -0.999956
vn -0.000396 -0.000662 -1.000000
vn -0.002335 -0.003901 -0.999990
vn 0.004846 -0.008096 -0.999956
vn 0.054407 -0.090903 -0.994372
vn 0.002335 -0.003901 -0.999990
vn 0.000396 -0.000662 -1.000000
vn 0.000000 0.000000 -1.000000
vn 0.000000 0.000000 -1.000000
vn 0.000000 0.000000 -1.000000
vn 0.000000 0.000000 -1.000000
vn 0.000000 0.000000 -1.000000
vn 0.000000 0.000000 -1.000000
vn 0.000000 0.000000 -1.000000
vn 0.000000 0.000000 -1.000000
vn 0.000000 0.000000 -1.000000
vn 0.000000 0.000000 -1.000000
vn 0.000000 0.000000 -1.000000
vn 0.000000 0.000000 -1.000000
vn 0.000000 0.000000 -1.000000
vn 0.000000 0.000000 -1.000000
vn 0.000000 0.000000 -1.000000
vn 0.000000 0.000000 -1.000000
vn 0.006326 0.008271 -0.999946
vn 0.000467 0.000610 -1.000000
vn 0.002277 0.002977 -0.999993
vn 0.051123 0.066833 -0.996454
vn -0.000467 0.000610 -1.000000
vn -0.002277 0.002977 -0.999993
vn 0.000000 0.000000 -1.000000
vn 0.000000 0.000000 -1.000000
vn 0.000000 0.000000 -1.000000
vn 0.000000 0.000000 -1.000000
vn 0.000000 0.000000 -1.000000
vn 0.000000 0.000000 -1.000000
vn -0.051123 0.066833 -0.996454
vn -0.006326 0.008271 -0.999946
vn 0.000000 0.000000 -1.000000
vn 0.000000 0.000000 -1.000000
vn -0.282639 -0.959226 0.000000
vn -0.014404 -0.999896 0.000000
vn -0.014404 -0.999896 0.000000
vn -0.282639 -0.959226 0.000000
vn -0.994459 0.105128 0.000000
vn -0.884287 -0.466944 0.000000
vn -0.884287 -0.466944 0.000000
vn -0.994459 0.105128 0.000000
vn 0.014404 -0.999896 0.000000
vn 0.282639 -0.959226 0.000000
vn 0.282639 -0.959226 0.000000
vn 0.014404 -0.999896 0.000000
vn 0.884286 -0.466945 0.000000
vn 0.994459 0.105128 0.000000
vn 0.994459 0.105128 0.000000
vn 0.884286 -0.466945 0.000000
vn 0.986170 0.165738 0.000000
vn 0.992746 0.120231 0.000000
vn 0.992746 0.120231 0.000000
vn 0.986170 0.165738 0.000000
vn -0.992746 0.120231 0.000000
vn -0.986170 0.165738 0.000000
vn -0.986170 0.165738 0.000000
vn -0.992746 0.120231 0.000000
vn 0.996240 0.086642 0.000000
vn 0.996240 -0.086642 0.000000
vn 0.996240 -0.086642 0.000000
vn 0.996240 0.086642 0.000000
vn -0.996240 -0.086642 0.000000
vn -0.996240 0.086642 0.000000
vn -0.996240 0.086642 0.000000
vn -0.996240 -0.086642 0.000000
vn 0.995062 -0.099255 0.000000
vn 0.943095 0.332525 0.000000
vn 0.943095 0.332525 0.000000
vn 0.995062 -0.099255 0.000000
vn 0.280317 0.959907 0.000000
vn 0.014377 0.999897 0.000000
vn 0.014377 0.999897 0.000000
vn 0.280317 0.959907 0.000000
vn -0.014377 0.999897 0.000000
vn -0.014377 0.999897 0.000000
vn 0.992746 -0.120231 0.000000
vn 0.986803 -0.161926 0.000000
vn 0.986803 -0.161926 0.000000
vn 0.992746 -0.120231 0.000000
vn -0.943095 0.332525 0.000000
vn -0.995062 -0.099254 0.000000
vn -0.995062 -0.099255 0.000000
vn -0.943095 0.332525 0.000000
vn -0.280318 0.959907 0.000000
vn -0.280318 0.959907 0.000000
vn -0.986803 -0.161926 0.000000
vn -0.992746 -0.120231 0.000000
vn -0.992746 -0.120231 0.000000
vn -0.986803 -0.161926 0.000000
vn 0.989999 -0.141072 0.000000
vn 0.989999 -0.141072 0.000000
vn 0.989999 -0.141072 0.000000
vn 0.989999 -0.141072 0.000000
vn 0.000000 1.000000 0.000000
vn 0.000000 1.000000 0.000000
vn 0.000000 1.000000 0.000000
vn 0.000000 1.000000 0.000000
vn -0.989999 -0.141072 0.000000
vn -0.989999 -0.141072 0.000000
vn -0.989999 -0.141072 0.000000
vn -0.989999 -0.141072 0.000000
vn 0.995703 -0.092609 0.000000
vn 0.994432 -0.105382 0.000000
vn 0.994432 -0.105382 0.000000
vn 0.995703 -0.092609 0.000000
vn -0.994432 -0.105382 0.000000
vn -0.995703 -0.092609 0.000000
vn -0.995703 -0.092609 0.000000
vn -0.994432 -0.105382 0.000000
vn 0.000000 -1.000000 0.000000
vn 0.000000 -1.000000 0.000000
vn 0.000000 -1.000000 0.000000
vn 0.000000 -1.000000 0.000000
vn 0.990536 0.137251 0.000000
vn 0.990536 0.137251 0.000000
vn 0.990536 0.137251 0.000000
vn 0.990536 0.137251 0.000000
vn 0.000000 1.000000 0.000000
vn 0.000000 1.000000 0.000000
vn 0.000000 1.000000 0.000000
vn 0.000000 1.000000 0.000000
vn -0.990536 0.137251 0.000000
vn -0.990536 0.137251 0.000000
vn -0.990536 0.137251 0.000000
vn -0.990536 0.137251 0.000000
vn 0.000000 -1.000000 0.000000
vn 0.000000 -1.000000 0.000000
vn 0.000000 -1.000000 0.000000
vn 0.000000 -1.000000 0.000000
vn 0.995703 0.092609 0.000000
vn 0.995703 0.092609 0.000000
vn 0.995703 0.092609 0.000000
vn 0.995703 0.092609 0.000000
vn 0.000000 1.000000 0.000000
vn 0.000000 1.000000 0.000000
vn 0.000000 1.000000 0.000000
vn 0.000000 1.000000 0.000000
vn -0.995703 0.092609 0.000000
vn -0.995703 0.092609 0.000000
vn -0.995703 0.092609 0.000000
vn -0.995703 0.092609 0.000000
vn 0.000000 -1.000000 0.000000
vn 0.000000 -1.000000 0.000000
vn 0.000000 -1.000000 0.000000
vn 0.000000 -1.000000 0.000000
vn 0.000000 0.000000 1.000000
vn 0.000000 0.000000 1.000000
vn 0.000000 0.000000 1.000000
vn 0.000000 0.000000 1.000000
vn -0.986249 -0.165267 0.000000
vn -0.986249 -0.165267 0.000000
vn 0.986249 -0.165268 0.000000
vn 0.986249 -0.165268 0.000000
s 1
g polySurface10 pCube29
usemtl otoko1:Blue:blue_bodySG3
f 41/1/1 42/2/2 43/3/3 44/4/4
f 45/5/5 46/6/6 47/7/7 48/8/8
f 43/3/3 42/2/2 47/7/7 46/6/6
f 50/9/9 49/10/10 51/11/11 52/12/12
f 55/13/13 56/14/14 54/15/15 53/16/16
s off
f 81/17/17 82/18/18 83/19/19 84/20/20
s 1
f 44/4/4 43/3/3 54/15/15 56/14/14
f 52/12/12 46/6/6 45/5/5 50/9/9
f 58/21/21 57/22/22 59/23/23 60/24/24
f 60/29/24 59/151/23 61/31/25 62/129/26
f 63/25/27 64/26/28 62/27/26 61/28/25
f 55/13/13 53/16/16 62/27/26 64/26/28
f 60/24/24 51/11/11 49/10/10 58/21/21
s off
f 86/36/29 85/49/30 87/50/31 88/51/32
s 1
f 66/33/33 65/34/34 67/35/35 68/37/36
f 68/37/36 67/35/35 69/38/37 70/39/38
f 72/40/39 71/41/40 73/42/41 74/43/42
f 74/52/42 73/133/41 75/54/43 76/150/44
f 77/44/45 78/45/46 70/39/38 69/38/37
f 79/46/47 80/47/48 76/48/44 75/125/43
f 79/46/47 75/125/43 70/39/38 78/45/46
f 68/37/36 73/42/41 71/41/40 66/33/33
s off
f 90/56/49 89/128/50 91/135/51 92/136/52
s 1
f 63/25/27 61/28/25 76/48/44 80/47/48
f 74/43/42 59/23/23 57/22/22 72/40/39
s off
f 94/137/53 93/138/54 95/139/55 96/140/56
s 6
f 1/57/57 7/58/58 6/59/59 4/60/60
f 8/61/61 2/62/62 3/63/63 5/64/64
f 6/59/59 5/64/64 3/63/63 4/60/60
f 10/65/65 12/66/66 11/67/67 9/68/68
f 12/66/66 16/69/69 15/70/70 11/67/67
f 13/71/71 15/70/70 16/69/69 14/72/72
f 16/69/69 12/66/66 5/64/64 6/59/59
f 7/58/58 14/72/72 16/69/69 6/59/59
f 12/66/66 10/65/65 8/61/61 5/64/64
f 18/73/73 20/74/74 19/75/75 17/76/76
f 20/74/74 24/77/77 23/78/78 19/75/75
f 21/79/79 23/78/78 24/77/77 22/80/80
f 13/71/71 22/80/80 24/77/77 15/70/70
f 20/74/74 18/73/73 9/68/68 11/67/67
f 24/77/77 20/74/74 11/67/67 15/70/70
f 26/81/81 27/82/82 28/83/83 25/84/84
f 27/82/82 39/85/85 40/86/86 28/83/83
f 30/87/87 32/88/88 31/89/89 29/90/90
f 32/88/88 38/91/91 37/92/92 31/89/89
f 33/93/93 40/86/86 39/85/85 34/94/94
f 35/95/95 37/92/92 38/91/91 36/96/96
f 35/95/95 34/94/94 39/85/85 37/92/92
f 27/82/82 26/81/81 29/90/90 31/89/89
f 39/85/85 27/82/82 31/89/89 37/92/92
f 21/79/79 36/96/96 38/91/91 23/78/78
f 32/88/88 30/87/87 17/76/76 19/75/75
f 38/91/91 32/88/88 19/75/75 23/78/78
s 8
f 1/57/97 4/60/98 42/97/99 41/98/100
s 9
f 7/58/101 1/57/102 41/124/103 44/99/104
s 8
f 3/63/105 2/62/106 48/123/107 47/101/108
s 10
f 2/62/109 8/61/110 45/102/111 48/100/112
s 8
f 4/60/98 3/63/105 47/101/108 42/97/99
s 10
f 10/65/113 9/68/114 49/103/115 50/104/116
s 9
f 13/71/117 14/72/118 56/105/119 55/106/120
f 14/72/118 7/58/101 44/99/104 56/105/119
s 10
f 8/61/110 10/65/113 50/104/116 45/102/111
f 18/73/121 17/76/122 57/107/123 58/108/124
s 9
f 21/79/125 22/80/126 64/109/127 63/110/128
f 22/80/126 13/71/117 55/106/120 64/109/127
s 10
f 9/68/114 18/73/121 58/108/124 49/103/115
f 26/81/129 25/84/130 65/121/131 66/112/132
s 14
f 25/84/133 28/83/134 67/113/135 65/111/136
f 28/83/134 40/86/137 69/114/138 67/113/135
s 10
f 30/87/139 29/90/140 71/115/141 72/116/142
s 9
f 33/93/143 34/94/144 78/117/145 77/118/146
s 14
f 40/86/137 33/93/147 77/122/148 69/114/138
s 9
f 35/95/149 36/96/150 80/119/151 79/120/152
f 34/94/144 35/95/149 79/120/152 78/117/145
s 10
f 29/90/140 26/81/129 66/112/132 71/115/141
s 9
f 36/96/150 21/79/125 63/110/128 80/119/151
s 10
f 17/76/122 30/87/139 72/116/142 57/107/123
s off
f 54/141/153 43/126/154 82/18/155 81/17/156
f 43/142/157 46/127/158 83/19/159 82/18/160
f 46/143/161 52/144/162 84/20/163 83/19/164
s 16
f 62/32/165 53/145/166 85/49/167 86/36/168
s 17
f 51/146/169 60/130/170 88/51/171 87/50/172
s off
f 60/29/173 62/129/174 86/36/175 88/51/176
f 70/147/177 75/131/178 89/128/179 90/56/180
f 75/54/181 73/133/182 91/135/183 89/128/184
f 73/53/185 68/134/186 92/136/187 91/135/188
f 68/148/189 70/132/190 90/56/191 92/136/192
f 76/55/193 61/152/194 93/138/195 94/137/196
f 61/31/197 59/151/198 95/139/199 93/138/200
f 59/30/201 74/149/202 96/140/203 95/139/204
f 74/52/205 76/150/206 94/137/207 96/140/208
f 84/20/209 87/50/210 85/49/211 81/17/212
s 17
f 51/146/169 87/50/172 84/20/213 52/144/214
s 16
f 85/49/167 53/145/166 54/141/215 81/17/216
